#!OML:ASF H:\LiuWeirdWalks\Patient Classification 1\Patient 1\Session 1\male.ASF
:FULLY-SPECIFIED
:DEGREES
1118
root 0.0989662 18.2672 16.5013 3.80675 3.76378 -4.57835
lowerback 3.45352 -2.17604 5.81367
upperback -0.159781 -2.54945 5.03693
thorax -2.12885 -1.30631 2.07929
lowerneck -19.1515 1.48985 5.78692
upperneck 21.7765 2.25731 -7.65391
head 10.2779 0.603541 -3.37515
rclavicle 1.55052e-014 4.13472e-014
rhumerus -39.4038 -6.61878 -76.7547
rradius 33.4695
rwrist -9.80404
rhand -18.2838 -3.43614
rfingers 7.12502
rthumb 7.99648 -33.2649
lclavicle 1.55052e-014 4.13472e-014
lhumerus -34.5144 -5.97947 91.8548
lradius 39.7586
lwrist 16.8649
lhand -14.4845 -2.07529
lfingers 7.12502
lthumb 11.6619 27.5802
rfemur -10.9754 -6.6249 30.5141
rtibia 22.5579
rfoot -10.7895 -11.5056
rtoes -0.314259
lfemur -17.3915 0.276655 -9.22283
ltibia 66.2286
lfoot -2.53356 -0.22796
ltoes -16.7575
1119
root 0.096766 18.2609 16.5349 3.63834 3.88655 -4.74374
lowerback 3.52245 -2.12419 5.99378
upperback -0.064857 -2.47223 5.06258
thorax -2.07539 -1.26752 2.00203
lowerneck -19.3213 1.47924 5.76392
upperneck 21.8191 2.24175 -7.64405
head 10.3238 0.592589 -3.37212
rclavicle 1.86858e-014 2.8625e-014
rhumerus -39.2783 -6.6725 -76.7164
rradius 33.3833
rwrist -9.77536
rhand -18.308 -3.39046
rfingers 7.12502
rthumb 7.97308 -33.2201
lclavicle 1.86858e-014 2.8625e-014
lhumerus -34.558 -5.89365 91.819
lradius 39.8134
lwrist 16.862
lhand -14.5078 -2.091
lfingers 7.12502
lthumb 11.6395 27.5657
rfemur -10.667 -6.65758 30.7034
rtibia 22.5125
rfoot -10.8152 -11.7073
rtoes -0.412264
lfemur -18.1202 0.31596 -9.01615
ltibia 66.6317
lfoot -3.19707 0.0522371
ltoes -16.9467
1120
root 0.0944775 18.2545 16.5686 3.47258 4.0125 -4.8995
lowerback 3.60376 -2.08924 6.13787
upperback 0.0706414 -2.42081 5.09602
thorax -1.98484 -1.24005 1.95354
lowerneck -19.6576 1.51265 5.77742
upperneck 21.8654 2.27653 -7.66321
head 10.4074 0.601349 -3.3798
rclavicle -5.96354e-015 4.29375e-014
rhumerus -39.0378 -6.69718 -76.7096
rradius 33.2782
rwrist -9.71961
rhand -18.3219 -3.35674
rfingers 7.12502
rthumb 7.95967 -33.1869
lclavicle -5.96354e-015 4.29375e-014
lhumerus -34.4985 -5.75135 91.7491
lradius 39.8457
lwrist 16.8688
lhand -14.5304 -2.12761
lfingers 7.12502
lthumb 11.6176 27.5303
rfemur -10.372 -6.69174 30.882
rtibia 22.4892
rfoot -10.8592 -11.9105
rtoes -0.497527
lfemur -18.8471 0.347859 -8.82573
ltibia 66.9697
lfoot -3.83902 0.349606
ltoes -17.1142
1121
root 0.0921143 18.2478 16.6016 3.31349 4.1381 -5.02405
lowerback 3.66693 -2.04782 6.26272
upperback 0.129557 -2.3579 5.10651
thorax -1.96323 -1.20853 1.89276
lowerneck -19.6732 1.51754 5.80446
upperneck 21.8213 2.2771 -7.68188
head 10.3949 0.601719 -3.39001
rclavicle 4.52235e-014 -6.99722e-014
rhumerus -38.9702 -6.71738 -76.6874
rradius 33.1794
rwrist -9.66084
rhand -18.326 -3.3619
rfingers 7.12502
rthumb 7.95569 -33.1922
lclavicle 4.52235e-014 -6.99722e-014
lhumerus -34.6124 -5.6408 91.6903
lradius 39.8842
lwrist 16.8987
lhand -14.5466 -2.16107
lfingers 7.12502
lthumb 11.602 27.4978
rfemur -10.0993 -6.70803 31.0267
rtibia 22.4949
rfoot -10.9221 -12.1279
rtoes -0.557662
lfemur -19.5727 0.374844 -8.67839
ltibia 67.2465
lfoot -4.46064 0.674325
ltoes -17.3282
1122
root 0.0900378 18.2408 16.6341 3.16342 4.26566 -5.11936
lowerback 3.71542 -2.00863 6.35821
upperback 0.175978 -2.29987 5.10822
thorax -1.94531 -1.17939 1.8391
lowerneck -19.6448 1.51703 5.81906
upperneck 21.781 2.27286 -7.68724
head 10.3749 0.601209 -3.39376
rclavicle 4.91992e-014 -1.27222e-014
rhumerus -38.9315 -6.73002 -76.6652
rradius 33.088
rwrist -9.58091
rhand -18.3266 -3.40628
rfingers 7.12502
rthumb 7.95509 -33.2366
lclavicle 4.91992e-014 -1.27222e-014
lhumerus -34.7529 -5.51746 91.6242
lradius 39.9237
lwrist 16.9254
lhand -14.5561 -2.20009
lfingers 7.12502
lthumb 11.5929 27.4592
rfemur -9.85025 -6.71925 31.1393
rtibia 22.526
rfoot -10.998 -12.3533
rtoes -0.601014
lfemur -20.2996 0.396843 -8.57488
ltibia 67.4672
lfoot -5.04439 1.02411
ltoes -17.4813
1123
root 0.0883303 18.2336 16.666 3.02009 4.39687 -5.19082
lowerback 3.77085 -1.96961 6.4324
upperback 0.198815 -2.24049 5.10277
thorax -1.95498 -1.15016 1.79059
lowerneck -19.5901 1.50481 5.8077
upperneck 21.7966 2.25866 -7.66971
head 10.3686 0.596964 -3.38753
rclavicle 1.20265e-014 -2.38542e-014
rhumerus -38.9313 -6.74463 -76.6322
rradius 32.9972
rwrist -9.491
rhand -18.3163 -3.48224
rfingers 7.12502
rthumb 7.96504 -33.3122
lclavicle 1.20265e-014 -2.38542e-014
lhumerus -34.9342 -5.398 91.5623
lradius 39.9583
lwrist 16.9544
lhand -14.5778 -2.22478
lfingers 7.12502
lthumb 11.572 27.4357
rfemur -9.62105 -6.71504 31.2258
rtibia 22.5788
rfoot -11.0869 -12.5969
rtoes -0.619162
lfemur -21.0246 0.410756 -8.50986
ltibia 67.6356
lfoot -5.60122 1.38955
ltoes -17.6524
1124
root 0.0871886 18.2261 16.698 2.87968 4.52726 -5.24957
lowerback 3.83018 -1.93181 6.49615
upperback 0.208898 -2.18184 5.09207
thorax -1.97972 -1.12165 1.74288
lowerneck -19.5273 1.4854 5.78073
upperneck 21.8329 2.23748 -7.63966
head 10.3675 0.589764 -3.3756
rclavicle 1.05356e-014 -3.65764e-014
rhumerus -38.9565 -6.75246 -76.6006
rradius 32.9107
rwrist -9.40871
rhand -18.3049 -3.53355
rfingers 7.12502
rthumb 7.97604 -33.3631
lclavicle 1.05356e-014 -3.65764e-014
lhumerus -35.1452 -5.26865 91.4961
lradius 39.9976
lwrist 16.9632
lhand -14.6156 -2.23632
lfingers 7.12502
lthumb 11.5355 27.4262
rfemur -9.4 -6.69056 31.298
rtibia 22.6431
rfoot -11.1821 -12.8639
rtoes -0.624791
lfemur -21.7415 0.423028 -8.47061
ltibia 67.7524
lfoot -6.1339 1.77221
ltoes -17.7308
1125
root 0.0864844 18.2183 16.73 2.74055 4.6616 -5.30873
lowerback 3.88777 -1.89049 6.56756
upperback 0.203937 -2.1171 5.07721
thorax -2.01926 -1.09065 1.6865
lowerneck -19.4415 1.45557 5.7505
upperneck 21.894 2.20423 -7.60641
head 10.3699 0.577459 -3.36419
rclavicle 2.3556e-014 -5.24792e-014
rhumerus -39.0097 -6.76913 -76.5624
rradius 32.8146
rwrist -9.33806
rhand -18.3042 -3.58067
rfingers 7.12502
rthumb 7.97673 -33.4102
lclavicle 2.3556e-014 -5.24792e-014
lhumerus -35.393 -5.14619 91.4313
lradius 40.0479
lwrist 16.9704
lhand -14.6382 -2.20732
lfingers 7.12502
lthumb 11.5137 27.4565
rfemur -9.185 -6.65311 31.3718
rtibia 22.7142
rfoot -11.2824 -13.153
rtoes -0.613701
lfemur -22.4492 0.429604 -8.44048
ltibia 67.8202
lfoot -6.66306 2.16701
ltoes -17.7945
1126
root 0.0866024 18.2106 16.7623 2.60114 4.80799 -5.3711
lowerback 3.95558 -2.02 6.4958
upperback 0.27207 -2.29097 5.08098
thorax -1.98708 -1.17525 1.74138
lowerneck -19.5273 1.66299 6.08036
upperneck 21.9612 2.43047 -7.75458
head 10.4345 0.689866 -3.4436
rclavicle -1.78906e-015 -3.49861e-014
rhumerus -38.7708 -6.42367 -76.8279
rradius 32.644
rwrist -9.25921
rhand -18.3086 -3.61551
rfingers 7.12502
rthumb 7.97246 -33.4452
lclavicle -1.78906e-015 -3.49861e-014
lhumerus -35.5475 -4.57312 91.069
lradius 40.137
lwrist 16.986
lhand -14.6387 -2.13035
lfingers 7.12502
lthumb 11.5132 27.5335
rfemur -8.97189 -6.63093 31.4485
rtibia 22.7859
rfoot -11.38 -13.4495
rtoes -0.602933
lfemur -23.1494 0.419828 -8.41654
ltibia 67.8384
lfoot -7.18893 2.56306
ltoes -17.7805
1127
root 0.0867951 18.203 16.7942 2.46356 4.95803 -5.43013
lowerback 4.0107 -2.10696 6.45431
upperback 0.331887 -2.40753 5.08125
thorax -1.95637 -1.2317 1.77227
lowerneck -19.5849 1.8022 6.29287
upperneck 22.0216 2.58246 -7.84095
head 10.4839 0.766172 -3.49094
rclavicle -4.6615e-014 1.145e-013
rhumerus -38.5787 -6.1676 -77.0201
rradius 32.4892
rwrist -9.20718
rhand -18.3194 -3.66993
rfingers 7.12502
rthumb 7.96209 -33.5
lclavicle -4.6615e-014 1.145e-013
lhumerus -35.7089 -4.11529 90.7829
lradius 40.217
lwrist 17.0252
lhand -14.6344 -2.03776
lfingers 7.12502
lthumb 11.5173 27.6258
rfemur -8.76323 -6.5967 31.5262
rtibia 22.8551
rfoot -11.4664 -13.7713
rtoes -0.589121
lfemur -23.8454 0.403182 -8.40183
ltibia 67.8091
lfoot -7.70193 2.9498
ltoes -17.749
1128
root 0.0866568 18.1952 16.8258 2.32611 5.11204 -5.5051
lowerback 4.07491 -2.18831 6.42358
upperback 0.388355 -2.51474 5.08905
thorax -1.93403 -1.28376 1.80503
lowerneck -19.6265 1.93254 6.48982
upperneck 22.0542 2.72573 -7.92587
head 10.5198 0.837675 -3.53549
rclavicle 2.99171e-014 -2.46493e-014
rhumerus -38.4004 -5.924 -77.197
rradius 32.3516
rwrist -9.16484
rhand -18.3248 -3.72086
rfingers 7.12502
rthumb 7.95685 -33.5511
lclavicle 2.99171e-014 -2.46493e-014
lhumerus -35.8771 -3.65957 90.5055
lradius 40.307
lwrist 17.0637
lhand -14.5984 -1.9149
lfingers 7.12502
lthumb 11.5521 27.7467
rfemur -8.55689 -6.53167 31.6295
rtibia 22.9184
rfoot -11.5358 -14.1352
rtoes -0.572542
lfemur -24.5426 0.383627 -8.37132
ltibia 67.7362
lfoot -8.1946 3.30913
ltoes -17.6691
1129
root 0.0863979 18.1874 16.857 2.18454 5.27845 -5.59534
lowerback 4.12406 -2.17155 6.51258
upperback 0.353167 -2.48026 5.07246
thorax -2.00212 -1.2687 1.73983
lowerneck -19.335 1.90386 6.51627
upperneck 22.0011 2.68902 -7.91903
head 10.4421 0.829797 -3.53984
rclavicle -9.83984e-015 4.77083e-014
rhumerus -38.5139 -5.92435 -77.1925
rradius 32.2739
rwrist -9.12352
rhand -18.3174 -3.79073
rfingers 7.12502
rthumb 7.96396 -33.6207
lclavicle -9.83984e-015 4.77083e-014
lhumerus -36.2163 -3.50259 90.3905
lradius 40.3877
lwrist 17.1108
lhand -14.5399 -1.78094
lfingers 7.12502
lthumb 11.6085 27.8775
rfemur -8.34587 -6.45411 31.755
rtibia 22.9734
rfoot -11.5948 -14.5268
rtoes -0.562725
lfemur -25.2351 0.351296 -8.32694
ltibia 67.6215
lfoot -8.64553 3.63156
ltoes -17.6229
1130
root 0.0855591 18.179 16.8879 2.03556 5.44128 -5.70704
lowerback 4.1744 -2.07097 6.68668
upperback 0.316937 -2.32957 5.05732
thorax -2.07288 -1.1965 1.62173
lowerneck -19.0903 1.76508 6.3546
upperneck 21.9516 2.52969 -7.82034
head 10.3605 0.75966 -3.49678
rclavicle 7.55382e-015 -6.67916e-014
rhumerus -38.6985 -6.13251 -77.04
rradius 32.238
rwrist -9.08147
rhand -18.2962 -3.86372
rfingers 7.12502
rthumb 7.98448 -33.6929
lclavicle 7.55382e-015 -6.67916e-014
lhumerus -36.519 -3.55861 90.4129
lradius 40.4344
lwrist 17.1254
lhand -14.4713 -1.6744
lfingers 7.12502
lthumb 11.6746 27.9803
rfemur -8.12404 -6.34041 31.9117
rtibia 23.0173
rfoot -11.6409 -14.9502
rtoes -0.553737
lfemur -25.9165 0.329847 -8.25886
ltibia 67.4677
lfoot -9.06168 3.91594
ltoes -17.6304
1131
root 0.0838935 18.1704 16.9186 1.87783 5.59924 -5.84093
lowerback 4.22231 -1.89759 6.946
upperback 0.236034 -2.07432 5.03012
thorax -2.18866 -1.0747 1.43811
lowerneck -18.7118 1.52359 6.05938
upperneck 21.888 2.25251 -7.64462
head 10.2369 0.635496 -3.41843
rclavicle 1.76918e-014 -1.27222e-014
rhumerus -39.0507 -6.52178 -76.7619
rradius 32.236
rwrist -9.0362
rhand -18.2838 -3.89832
rfingers 7.12502
rthumb 7.9964 -33.7271
lclavicle 1.76918e-014 -1.27222e-014
lhumerus -36.8958 -3.83519 90.5495
lradius 40.459
lwrist 17.1369
lhand -14.4294 -1.59306
lfingers 7.12502
lthumb 11.7151 28.0594
rfemur -7.89182 -6.20079 32.1003
rtibia 23.0508
rfoot -11.669 -15.3925
rtoes -0.573976
lfemur -26.5844 0.315208 -8.16376
ltibia 67.2733
lfoot -9.43927 4.15288
ltoes -17.709
1132
root 0.0817853 18.1618 16.9496 1.71572 5.75377 -5.9713
lowerback 4.26861 -1.70859 7.21193
upperback 0.110053 -1.79417 4.99591
thorax -2.34766 -0.942772 1.24238
lowerneck -18.1728 1.25641 5.74855
upperneck 21.7873 1.94586 -7.4613
head 10.0689 0.499767 -3.33609
rclavicle 4.21423e-014 2.38542e-014
rhumerus -39.5318 -6.93196 -76.4476
rradius 32.266
rwrist -8.98629
rhand -18.2624 -3.91351
rfingers 7.12502
rthumb 8.01706 -33.7415
lclavicle 4.21423e-014 2.38542e-014
lhumerus -37.3731 -4.16759 90.7162
lradius 40.4758
lwrist 17.1249
lhand -14.4229 -1.56366
lfingers 7.12502
lthumb 11.7213 28.0884
rfemur -7.6498 -6.05109 32.2883
rtibia 23.0763
rfoot -11.6887 -15.8368
rtoes -0.617238
lfemur -27.2308 0.302413 -8.07464
ltibia 67.0342
lfoot -9.80138 4.3575
ltoes -17.7755
